<?xml version="1.0" encoding="UTF-8"?>
<svg width="372px" height="73px" viewBox="0 0 372 73" version="1.1" xmlns="http://www.w3.org/2000/svg" xmlns:xlink="http://www.w3.org/1999/xlink">
    <g id="logo-smem" transform="translate(-15.000000, -12.000000)" fill="#000000">
        <g id="Group" transform="translate(15.000000, 12.000000)">
            <polygon id="Path" points="16.4170854 26.8876611 20.2160804 28.7697974 40.9748744 32.8029466 48.7085427 37.9116022 54 46.5156538 54 57.9429098 48.8442211 65.7403315 42.3316583 70.3112339 33.1055276 73 21.0301508 73 9.49748744 70.0423573 3.12060302 65.06814 0 61.572744 7.86934673 54.0441989 10.4472362 57.1362799 14.1105528 59.9594843 22.5226131 62.1104972 31.6130653 62.1104972 37.3115578 60.4972376 40.7035176 58.0773481 42.8743719 54.7163904 42.8743719 49.6077348 40.5678392 45.7090239 36.4974874 42.8858195 16.959799 38.9871087 8.27638191 34.4162063 2.57788945 26.6187845 2.57788945 14.6537753 7.05527638 6.9907919 13.160804 2.2854512 21.5728643 0 33.1055276 0 44.2311558 2.95764273 52.3718593 8.46961326 46.2663317 17.4769797 39.7537688 13.0405157 32.1557789 10.7550645 23.0653266 10.7550645 17.9095477 12.2338858 15.6030151 14.1160221 13.7035176 17.3425414 13.7035176 23.2578269"></polygon>
            <polygon id="Path" points="114.894952 19.1102804 111.518417 13.5925234 104.630286 11.035514 95.9863574 11.035514 86.2619372 17.2261682 82.2100955 23.0130841 82.2100955 72 71 72 71 1.07663551 82.2100955 1.07663551 82.2100955 8.07476636 85.5866303 5.11401869 94.5006821 0 106.92633 0 117.866303 3.22990654 122.998636 10.2280374 128.941337 5.11401869 138.395634 0 150.821282 0 161.761255 3.22990654 170 14.2654206 170 72 158.789905 72 158.789905 18.5719626 155.41337 13.3233645 148.525239 11.035514 139.88131 11.035514 130.427012 17.2261682 126.105048 23.5514019 126.105048 72 114.894952 72"></polygon>
            <path d="M201.149254,43.2891344 L202.895522,49.2044199 L209.343284,57.9429098 L217.537313,61.9760589 L225.597015,61.9760589 L234.731343,59.6906077 L241.716418,55.2541436 L247.626866,64.1270718 L238.895522,69.907919 L226.537313,73 L215.38806,73 L201.955224,66.5469613 L192.820896,54.1786372 L190,44.6335175 L190,28.6353591 L192.820896,18.8213628 L201.955224,6.45303867 L215.38806,0 L227.343284,0 L240.910448,6.45303867 L249.910448,18.8213628 L253,27.8287293 L253,41.9447514 L201.149254,41.9447514 L201.149254,43.2891344 Z M241.850746,30.9208103 L241.850746,29.1731123 L240.104478,24.0644567 L233.656716,15.3259669 L225.462687,11.0239411 L217.134328,11.0239411 L209.074627,15.1915285 L202.761194,23.7955801 L201.149254,29.7108656 L201.149254,30.9208103 L241.850746,30.9208103 Z" id="Combined-Shape"></path>
            <polygon id="Path" points="316.894952 19.1102804 313.518417 13.5925234 306.630286 11.035514 297.986357 11.035514 288.261937 17.2261682 284.210095 23.0130841 284.210095 72 273 72 273 1.07663551 284.210095 1.07663551 284.210095 8.07476636 287.58663 5.11401869 296.500682 0 308.92633 0 319.866303 3.22990654 324.998636 10.2280374 330.941337 5.11401869 340.395634 0 352.821282 0 363.761255 3.22990654 372 14.2654206 372 72 360.789905 72 360.789905 18.5719626 357.41337 13.3233645 350.525239 11.035514 341.88131 11.035514 332.427012 17.2261682 328.105048 23.5514019 328.105048 72 316.894952 72"></polygon>
        </g>
    </g>
</svg>
